<svg id="visual" viewBox="0 0 900 600" width="900" height="600" xmlns="http://www.w3.org/2000/svg" xmlns:xlink="http://www.w3.org/1999/xlink" version="1.1"><rect x="0" y="0" width="900" height="600" fill="#383f51"></rect><defs><linearGradient id="grad1_0" x1="33.3%" y1="0%" x2="100%" y2="100%"><stop offset="20%" stop-color="#0196df" stop-opacity="1"></stop><stop offset="80%" stop-color="#0196df" stop-opacity="1"></stop></linearGradient></defs><defs><linearGradient id="grad1_1" x1="33.3%" y1="0%" x2="100%" y2="100%"><stop offset="20%" stop-color="#0196df" stop-opacity="1"></stop><stop offset="80%" stop-color="#406895" stop-opacity="1"></stop></linearGradient></defs><defs><linearGradient id="grad1_2" x1="33.3%" y1="0%" x2="100%" y2="100%"><stop offset="20%" stop-color="#383f51" stop-opacity="1"></stop><stop offset="80%" stop-color="#406895" stop-opacity="1"></stop></linearGradient></defs><defs><linearGradient id="grad2_0" x1="0%" y1="0%" x2="66.7%" y2="100%"><stop offset="20%" stop-color="#0196df" stop-opacity="1"></stop><stop offset="80%" stop-color="#0196df" stop-opacity="1"></stop></linearGradient></defs><defs><linearGradient id="grad2_1" x1="0%" y1="0%" x2="66.7%" y2="100%"><stop offset="20%" stop-color="#406895" stop-opacity="1"></stop><stop offset="80%" stop-color="#0196df" stop-opacity="1"></stop></linearGradient></defs><defs><linearGradient id="grad2_2" x1="0%" y1="0%" x2="66.7%" y2="100%"><stop offset="20%" stop-color="#406895" stop-opacity="1"></stop><stop offset="80%" stop-color="#383f51" stop-opacity="1"></stop></linearGradient></defs><g transform="translate(900, 0)"><path d="M0 378.6C-78.3 375.7 -156.6 372.7 -189.3 327.9C-222 283 -209 196.1 -233 134.5C-256.9 72.9 -317.7 36.4 -378.6 0L0 0Z" fill="#3f5372"></path><path d="M0 252.4C-52.2 250.4 -104.4 248.5 -126.2 218.6C-148 188.7 -139.3 130.8 -155.3 89.7C-171.3 48.6 -211.8 24.3 -252.4 0L0 0Z" fill="#367eba"></path><path d="M0 126.2C-26.1 125.2 -52.2 124.2 -63.1 109.3C-74 94.3 -69.7 65.4 -77.7 44.8C-85.6 24.3 -105.9 12.1 -126.2 0L0 0Z" fill="#0196df"></path></g><g transform="translate(0, 600)"><path d="M0 -378.6C50.8 -342.7 101.7 -306.8 161.5 -279.7C221.3 -252.7 290.2 -234.4 327.9 -189.3C365.5 -144.1 372.1 -72.1 378.6 0L0 0Z" fill="#3f5372"></path><path d="M0 -252.4C33.9 -228.5 67.8 -204.5 107.7 -186.5C147.6 -168.4 193.5 -156.3 218.6 -126.2C243.7 -96.1 248 -48 252.4 0L0 0Z" fill="#367eba"></path><path d="M0 -126.2C16.9 -114.2 33.9 -102.3 53.8 -93.2C73.8 -84.2 96.7 -78.1 109.3 -63.1C121.8 -48 124 -24 126.2 0L0 0Z" fill="#0196df"></path></g></svg>