<svg id="visual" viewBox="0 0 900 600" width="900" height="600" xmlns="http://www.w3.org/2000/svg" xmlns:xlink="http://www.w3.org/1999/xlink" version="1.1"><rect width="900" height="600" fill="#383f51"></rect><g><g transform="translate(100 587)"><path d="M87 -23.9C101.3 15.8 93.6 67 63.1 89.8C32.6 112.6 -20.6 107.1 -55.3 80.7C-90 54.4 -106.3 7.3 -94 -29.6C-81.7 -66.5 -40.9 -93.1 -2.3 -92.4C36.3 -91.6 72.7 -63.5 87 -23.9Z" fill="none" stroke="#0196df" stroke-width="20"></path></g><g transform="translate(247 18)"><path d="M43.1 -12.6C50.1 7.4 45.9 32.5 29.8 45.2C13.6 57.9 -14.5 58.3 -31.5 45.4C-48.6 32.6 -54.5 6.5 -47.4 -13.8C-40.3 -34.1 -20.2 -48.5 -1 -48.2C18.1 -47.8 36.1 -32.7 43.1 -12.6Z" fill="none" stroke="#0196df" stroke-width="20"></path></g><g transform="translate(639 312)"><path d="M74.8 -28.5C85.3 8.1 74.2 47.4 45.3 70.2C16.5 93 -30 99.2 -61 78.1C-92 57 -107.3 8.6 -94.6 -31.1C-81.8 -70.8 -40.9 -101.7 -4.4 -100.2C32.1 -98.8 64.2 -65.1 74.8 -28.5Z" fill="none" stroke="#0196df" stroke-width="20"></path></g></g></svg>