<svg id="visual" viewBox="0 0 900 600" width="900" height="600" xmlns="http://www.w3.org/2000/svg" xmlns:xlink="http://www.w3.org/1999/xlink" version="1.1"><rect x="0" y="0" width="900" height="600" fill="#383f51"></rect><path d="M0 368L100 367L200 390L300 409L400 397L500 380L600 389L700 412L800 423L900 417L900 601L800 601L700 601L600 601L500 601L400 601L300 601L200 601L100 601L0 601Z" fill="#e53f6e"></path><path d="M0 451L100 454L200 455L300 466L400 421L500 418L600 458L700 457L800 423L900 438L900 601L800 601L700 601L600 601L500 601L400 601L300 601L200 601L100 601L0 601Z" fill="#ea4c71"></path><path d="M0 505L100 481L200 479L300 484L400 513L500 510L600 472L700 483L800 497L900 493L900 601L800 601L700 601L600 601L500 601L400 601L300 601L200 601L100 601L0 601Z" fill="#ef5873"></path><path d="M0 529L100 532L200 527L300 544L400 525L500 546L600 525L700 534L800 542L900 522L900 601L800 601L700 601L600 601L500 601L400 601L300 601L200 601L100 601L0 601Z" fill="#f46376"></path></svg>