<svg id="visual" viewBox="0 0 900 600" width="900" height="600" xmlns="http://www.w3.org/2000/svg" xmlns:xlink="http://www.w3.org/1999/xlink" version="1.1"><path d="M0 67L129 73L257 97L386 109L514 115L643 91L771 85L900 61L900 0L771 0L643 0L514 0L386 0L257 0L129 0L0 0Z" fill="#00cc8e"></path><path d="M0 187L129 253L257 289L386 325L514 265L643 205L771 199L900 277L900 59L771 83L643 89L514 113L386 107L257 95L129 71L0 65Z" fill="#00b98a"></path><path d="M0 271L129 313L257 385L386 397L514 385L643 319L771 295L900 349L900 275L771 197L643 203L514 263L386 323L257 287L129 251L0 185Z" fill="#00a784"></path><path d="M0 517L129 511L257 511L386 559L514 553L643 505L771 523L900 547L900 347L771 293L643 317L514 383L386 395L257 383L129 311L0 269Z" fill="#00957c"></path><path d="M0 601L129 601L257 601L386 601L514 601L643 601L771 601L900 601L900 545L771 521L643 503L514 551L386 557L257 509L129 509L0 515Z" fill="#038373"></path></svg>