<svg id="visual" viewBox="0 0 900 600" width="900" height="600" xmlns="http://www.w3.org/2000/svg" xmlns:xlink="http://www.w3.org/1999/xlink" version="1.1"><g stroke-width="1" stroke-linejoin="bevel"><path d="M541 333L422 204L297 466Z" fill="#3e4f6b" stroke="#3e4f6b"></path><path d="M297 466L370 600L541 333Z" fill="#415f87" stroke="#415f87"></path><path d="M297 466L313 600L370 600Z" fill="#405779" stroke="#405779"></path><path d="M422 204L169 190L297 466Z" fill="#383f51" stroke="#383f51"></path><path d="M297 466L0 600L313 600Z" fill="#406895" stroke="#406895"></path><path d="M690 0L414 0L422 204Z" fill="#3c475e" stroke="#3c475e"></path><path d="M422 204L192 0L169 190Z" fill="#406895" stroke="#406895"></path><path d="M726 600L754 371L541 333Z" fill="#397ab2" stroke="#397ab2"></path><path d="M541 333L764 174L422 204Z" fill="#3e71a3" stroke="#3e71a3"></path><path d="M169 190L0 332L297 466Z" fill="#383f51" stroke="#383f51"></path><path d="M0 0L0 290L169 190Z" fill="#3c475e" stroke="#3c475e"></path><path d="M169 190L0 290L0 332Z" fill="#405779" stroke="#405779"></path><path d="M414 0L192 0L422 204Z" fill="#0196df" stroke="#0196df"></path><path d="M754 371L764 174L541 333Z" fill="#3c475e" stroke="#3c475e"></path><path d="M370 600L726 600L541 333Z" fill="#406895" stroke="#406895"></path><path d="M764 174L690 0L422 204Z" fill="#248cd0" stroke="#248cd0"></path><path d="M0 332L0 600L297 466Z" fill="#3e4f6b" stroke="#3e4f6b"></path><path d="M754 371L900 227L764 174Z" fill="#397ab2" stroke="#397ab2"></path><path d="M764 174L900 0L690 0Z" fill="#248cd0" stroke="#248cd0"></path><path d="M726 600L900 405L754 371Z" fill="#383f51" stroke="#383f51"></path><path d="M900 405L900 227L754 371Z" fill="#3183c1" stroke="#3183c1"></path><path d="M192 0L0 0L169 190Z" fill="#383f51" stroke="#383f51"></path><path d="M726 600L900 600L900 405Z" fill="#415f87" stroke="#415f87"></path><path d="M900 227L900 0L764 174Z" fill="#415f87" stroke="#415f87"></path></g></svg>