<?xml version="1.0" standalone="no"?><svg xmlns="http://www.w3.org/2000/svg" viewBox="0 0 1440 320"><path fill="#0099ff" fill-opacity="1" d="M0,160L24,144C48,128,96,96,144,112C192,128,240,192,288,202.7C336,213,384,171,432,176C480,181,528,235,576,261.3C624,288,672,288,720,288C768,288,816,288,864,250.7C912,213,960,139,1008,101.3C1056,64,1104,64,1152,85.3C1200,107,1248,149,1296,186.7C1344,224,1392,256,1416,272L1440,288L1440,0L1416,0C1392,0,1344,0,1296,0C1248,0,1200,0,1152,0C1104,0,1056,0,1008,0C960,0,912,0,864,0C816,0,768,0,720,0C672,0,624,0,576,0C528,0,480,0,432,0C384,0,336,0,288,0C240,0,192,0,144,0C96,0,48,0,24,0L0,0Z"></path></svg>